<?xml version="1.0" standalone="no"?>
<!DOCTYPE svg PUBLIC "-//W3C//DTD SVG 20010904//EN"
 "http://www.w3.org/TR/2001/REC-SVG-20010904/DTD/svg10.dtd">
<svg version="1.0" xmlns="http://www.w3.org/2000/svg"
 width="1080.000000pt" height="1080.000000pt" viewBox="0 0 1080.000000 1080.000000"
 preserveAspectRatio="xMidYMid meet">
<metadata>
Created by potrace 1.14, written by Peter Selinger 2001-2017
</metadata>
<g transform="translate(0.000000,1080.000000) scale(0.100000,-0.100000)"
fill="#000000" stroke="none">
<path d="M5148 10795 c-2 -1 -53 -6 -113 -9 -61 -3 -119 -8 -130 -10 -11 -2
-52 -7 -90 -10 -39 -4 -80 -8 -90 -10 -11 -2 -42 -7 -70 -10 -27 -4 -61 -8
-75 -11 -14 -3 -41 -7 -60 -10 -42 -7 -197 -35 -225 -42 -11 -2 -31 -6 -45 -9
-177 -36 -625 -170 -737 -220 -17 -8 -36 -14 -42 -14 -6 0 -19 -4 -29 -9 -9
-5 -28 -13 -42 -19 -301 -127 -485 -217 -725 -355 -38 -22 -73 -45 -77 -51 -4
-6 -8 -8 -8 -4 0 6 -157 -90 -195 -120 -5 -4 -48 -34 -95 -66 -47 -33 -97 -69
-111 -80 -14 -12 -36 -28 -49 -36 -12 -8 -28 -20 -34 -25 -6 -6 -31 -26 -56
-45 -25 -19 -50 -39 -56 -45 -6 -5 -28 -23 -49 -40 -21 -16 -43 -35 -49 -40
-6 -6 -51 -46 -101 -90 -106 -93 -349 -336 -420 -420 -27 -32 -65 -73 -83 -92
-17 -18 -32 -35 -32 -38 0 -4 -16 -23 -35 -43 -19 -20 -35 -40 -35 -44 0 -4
-10 -17 -23 -30 -42 -43 -337 -458 -337 -474 0 -2 -20 -34 -43 -71 -24 -37
-55 -88 -68 -113 -13 -25 -30 -51 -37 -58 -7 -8 -10 -18 -7 -23 4 -5 3 -9 -2
-9 -4 0 -26 -37 -48 -83 -22 -45 -43 -84 -46 -87 -6 -6 -72 -142 -101 -210
-24 -56 -40 -93 -66 -150 -49 -112 -187 -508 -207 -597 -2 -10 -11 -39 -19
-65 -8 -27 -12 -48 -9 -48 3 0 0 -7 -7 -15 -7 -8 -10 -15 -7 -15 3 0 1 -16 -5
-36 -5 -20 -11 -44 -14 -53 -6 -24 -44 -202 -49 -231 -3 -14 -7 -36 -10 -50
-3 -14 -7 -43 -10 -65 -3 -22 -7 -51 -10 -65 -12 -55 -21 -123 -31 -225 -3
-33 -7 -71 -9 -83 -27 -169 -27 -796 0 -1035 21 -191 22 -203 35 -282 5 -33
12 -73 14 -90 10 -62 25 -148 30 -163 3 -10 7 -28 10 -42 2 -14 12 -56 21 -95
9 -38 18 -79 20 -90 5 -29 40 -159 65 -240 12 -38 23 -77 25 -85 2 -8 13 -42
25 -75 12 -33 23 -67 25 -75 2 -8 10 -33 18 -55 53 -139 90 -231 95 -240 4 -5
7 -14 8 -20 1 -9 24 -63 59 -140 33 -73 175 -354 199 -395 15 -25 29 -53 33
-62 3 -10 9 -18 14 -18 5 0 9 -6 9 -12 0 -7 21 -47 48 -88 26 -41 53 -87 61
-102 8 -16 18 -28 23 -28 4 0 8 -4 8 -9 0 -8 68 -113 110 -171 78 -106 201
-269 216 -285 11 -11 31 -36 45 -55 15 -19 42 -52 60 -72 19 -21 54 -61 79
-89 66 -76 325 -335 404 -404 37 -33 76 -67 85 -76 27 -27 240 -199 246 -199
3 0 13 -8 23 -17 11 -10 32 -27 47 -38 16 -11 48 -35 72 -52 24 -18 47 -33 52
-33 4 0 16 -9 26 -20 10 -11 24 -20 31 -20 7 0 14 -4 16 -8 1 -4 59 -43 128
-86 69 -44 136 -86 150 -95 14 -9 39 -23 55 -31 17 -8 32 -17 35 -20 17 -18
404 -210 423 -210 9 0 17 -4 17 -9 0 -5 8 -11 18 -14 9 -3 85 -33 167 -67 129
-53 366 -138 417 -149 4 -1 26 -8 49 -16 23 -9 51 -17 63 -20 12 -3 89 -23
171 -44 134 -35 291 -70 383 -86 17 -3 47 -8 65 -11 17 -3 46 -7 62 -9 17 -2
48 -7 70 -10 72 -12 89 -14 160 -21 39 -3 78 -8 87 -10 140 -26 913 -25 1050
1 9 2 48 7 85 10 37 4 75 9 84 10 9 2 40 6 69 10 29 4 61 8 71 10 9 2 39 7 66
11 26 5 50 9 53 9 3 1 25 5 50 9 25 4 82 16 127 27 44 10 94 21 110 24 15 2
78 18 138 35 61 17 118 32 127 35 10 2 71 21 135 41 65 21 120 38 123 39 3 1
18 7 33 13 16 7 32 12 36 12 7 0 189 70 236 90 11 5 40 18 65 29 25 10 72 32
105 47 33 15 62 28 65 29 15 4 247 122 315 161 44 25 88 48 98 51 9 3 17 9 17
14 0 5 5 9 10 9 6 0 53 27 105 60 52 33 97 60 100 60 3 0 15 8 26 18 10 11 32
25 47 33 15 8 29 16 32 19 3 3 37 28 75 55 39 27 106 76 150 109 79 61 89 68
121 95 9 7 44 36 78 63 140 113 440 403 571 553 33 38 69 79 80 91 11 13 30
36 42 51 12 15 31 38 42 50 12 12 21 25 21 28 0 4 7 14 16 22 9 9 34 41 57 72
23 31 45 58 50 59 4 2 7 10 7 18 0 8 4 14 8 14 5 0 27 28 50 63 23 34 54 80
69 102 48 68 155 237 186 295 17 30 33 57 36 60 3 3 20 31 36 64 147 287 182
358 183 362 0 4 42 103 92 219 25 59 107 280 115 315 1 3 4 12 8 20 6 16 58
186 61 204 2 6 10 36 19 66 9 30 19 66 21 80 3 14 15 63 26 110 17 71 46 215
86 438 11 58 15 1461 4 1513 -5 26 -12 69 -15 95 -3 27 -7 56 -10 64 -2 8 -6
31 -9 50 -2 19 -10 58 -16 85 -6 28 -13 61 -16 75 -2 14 -17 81 -34 150 -17
69 -35 141 -39 160 -26 107 -137 438 -182 545 -7 17 -13 33 -14 38 -2 4 -4 9
-5 12 -1 3 -3 8 -5 13 -5 17 -45 108 -101 227 -20 44 -38 82 -38 85 -2 6 -93
185 -116 227 -9 15 -29 53 -47 83 -17 30 -40 71 -51 90 -58 104 -282 439 -318
477 -7 7 -22 28 -34 48 -12 19 -26 35 -31 35 -5 0 -9 7 -9 15 0 8 -4 15 -9 15
-4 0 -20 17 -33 38 -14 20 -38 51 -54 69 -16 18 -40 45 -52 60 -138 165 -449
476 -592 593 -17 14 -39 32 -48 41 -15 14 -193 155 -250 197 -12 9 -28 22 -35
27 -25 21 -346 235 -353 235 -4 0 -22 11 -39 25 -18 13 -35 21 -39 18 -3 -4
-6 -2 -6 3 0 5 -26 23 -57 39 -32 17 -60 33 -63 36 -3 3 -18 12 -35 21 -257
131 -355 179 -460 222 -22 10 -52 24 -67 32 -15 8 -31 15 -35 16 -5 0 -19 5
-33 10 -170 66 -392 143 -443 153 -9 2 -21 6 -26 9 -13 9 -426 111 -486 121
-16 3 -43 8 -60 12 -16 3 -37 7 -45 8 -19 3 -90 14 -115 19 -11 2 -45 7 -75
11 -30 3 -66 8 -80 10 -35 6 -95 13 -170 20 -36 4 -83 8 -105 11 -45 5 -682
14 -687 9z"/>
</g>
</svg>
